<?xml version="1.0" encoding="UTF-8"?>
<!--
  Inline icon sprite.  Each symbol defines a simple vector drawing and
  can be referenced via <use href="assets/icons.svg#icon-name" />.
  Icons have a 24×24 viewBox and are designed to be minimalist and
  contrast well at small sizes.
-->
<svg xmlns="http://www.w3.org/2000/svg" style="display:none">
  <!-- Logo: skull with antenna tower.  A playful mark representing radio and intelligence. -->
  <symbol id="logo" viewBox="0 0 64 64">
    <!-- Skull base -->
    <path d="M32 8c-11 0-20 9-20 20v10c0 6 3 11 8 14v4a4 4 0 004 4h4v-6h8v6h4a4 4 0 004-4v-4c5-3 8-8 8-14V28c0-11-9-20-20-20zm0 6a14 14 0 0114 14v10c0 4-2 7-5 9l-3 2v5h-4v-6h-8v6h-4v-5l-3-2c-3-2-5-5-5-9V28A14 14 0 0132 14z" fill="currentColor"/>
    <!-- Antenna mast -->
    <rect x="30" y="2" width="4" height="12" rx="1" fill="currentColor" />
    <!-- Antenna crossbars -->
    <rect x="24" y="4" width="16" height="2" rx="1" fill="currentColor" />
    <rect x="26" y="8" width="12" height="2" rx="1" fill="currentColor" />
  </symbol>
  <!-- Discord icon: simplified gaming controller -->
  <symbol id="discord" viewBox="0 0 24 24">
    <path d="M8 3a9 9 0 00-5 1l1 4a9 9 0 014-1 9 9 0 016 0 9 9 0 014 1l1-4a9 9 0 00-5-1h-2l-1 3h-2L8 3zM5 8l-2 9a9 9 0 005 4l1-3a6 6 0 01-3-3l2-6h-3zM19 8h-3l2 6a6 6 0 01-3 3l1 3a9 9 0 005-4l-2-9zM9 9a1.5 1.5 0 110 3 1.5 1.5 0 010-3zm6 0a1.5 1.5 0 110 3 1.5 1.5 0 010-3z" fill="currentColor"/>
  </symbol>
  <!-- QRZ icon: stylised Q letter -->
  <symbol id="qrz" viewBox="0 0 24 24">
    <path d="M12 2a10 10 0 100 20 10 10 0 100-20zm0 2a8 8 0 015.3 13.9L13 13.6V10h2v-2h-4v6l4.3 4.3A8 8 0 1112 4z" fill="currentColor"/>
  </symbol>
  <!-- Radio icon: radio waves emanating from a tower -->
  <symbol id="radio" viewBox="0 0 24 24">
    <path d="M12 2l2 6h-4l2-6zm0 8a5 5 0 015 5v7h-2v-7a3 3 0 00-6 0v7H7v-7a5 5 0 015-5zm8.5 4a.5.5 0 010 1 9.5 9.5 0 01-9.5 9.5.5.5 0 010-1A8.5 8.5 0 0020.5 14zM3.5 14a.5.5 0 010-1A8.5 8.5 0 0012 4.5a.5.5 0 010 1A7.5 7.5 0 014.5 14a.5.5 0 010 1z" fill="currentColor"/>
  </symbol>
  <!-- GitHub icon: octocat silhouette simplified -->
  <symbol id="github" viewBox="0 0 24 24">
    <path d="M12 .5a11.5 11.5 0 00-3.6 22.4c.6.1.8-.2.8-.5v-2.1c-3.3.7-4-1.6-4-1.6a3.1 3.1 0 00-1.3-1.7c-1-.7.1-.7.1-.7a2.5 2.5 0 011.8 1.2 2.6 2.6 0 003.5 1 2.6 2.6 0 01.8-1.6c-2.6-.3-5.3-1.3-5.3-5.8a4.5 4.5 0 011.2-3.2 4.1 4.1 0 01.1-3.1s1-.3 3.2 1.2a11 11 0 015.8 0c2.2-1.5 3.2-1.2 3.2-1.2a4.1 4.1 0 01.1 3.1 4.5 4.5 0 011.2 3.2c0 4.5-2.7 5.5-5.3 5.8a3 3 0 011 2.4v3.5c0 .3.2.6.8.5A11.5 11.5 0 0012 .5z" fill="currentColor"/>
  </symbol>
  <!-- YouTube icon: play button -->
  <symbol id="youtube" viewBox="0 0 24 24">
    <path d="M21.8 8.5a3 3 0 00-2.1-2.1C17.9 6 12 6 12 6s-5.9 0-7.7.4a3 3 0 00-2.1 2.1C2 10.3 2 12 2 12s0 1.7.2 3.5a3 3 0 002.1 2.1C6.1 18 12 18 12 18s5.9 0 7.7-.4a3 3 0 002.1-2.1c.2-1.8.2-3.5.2-3.5s0-1.7-.2-3.5zM10 15V9l5 3-5 3z" fill="currentColor"/>
  </symbol>
  <!-- External link icon: simple link chain -->
  <symbol id="link" viewBox="0 0 24 24">
    <path d="M10.6 13.4a1 1 0 010-1.4l4.2-4.2a3 3 0 114.2 4.2l-1.2 1.2-1.4-1.4 1.2-1.2a1 1 0 10-1.4-1.4l-4.2 4.2a1 1 0 01-1.4 0zm2.8-2.8a1 1 0 010 1.4l-4.2 4.2a3 3 0 11-4.2-4.2l1.2-1.2 1.4 1.4-1.2 1.2a1 1 0 001.4 1.4l4.2-4.2a1 1 0 011.4 0z" fill="currentColor"/>
  </symbol>
  <!-- Clock icon -->
  <symbol id="clock" viewBox="0 0 24 24">
    <path d="M12 2a10 10 0 100 20 10 10 0 100-20zm0 2a8 8 0 110 16 8 8 0 010-16zm-.5 4v6l5 3 .5-.9-4.5-2.6V8h-1z" fill="currentColor"/>
  </symbol>
  <!-- Tower icon: vertical mast with crossbars -->
  <symbol id="tower" viewBox="0 0 24 24">
    <path d="M11 2h2l2 6h-2l-1-3-1 3h-2l2-6zm2 8v12h3v2H8v-2h3V10h2z" fill="currentColor"/>
  </symbol>
  <!-- CPU icon: microchip -->
  <symbol id="cpu" viewBox="0 0 24 24">
    <rect x="7" y="7" width="10" height="10" rx="2" fill="currentColor"/>
    <path d="M4 10h2v4H4v-4zm14 0h2v4h-2v-4zM10 4h4v2h-4V4zm0 14h4v2h-4v-2zM5.8 5.8l1.4 1.4L6 8 4.6 6.6l1.2-1.2zm12.4 0l1.2 1.2L18 8l-1.4-1.4 1.6-1.6zM5.8 18.2l1.2-1.2L8 18l-1.4 1.4-1.6-1.2zm12.4 0l-1.2-1.2L18 16l1.4 1.4-1.2 1.6z" fill="currentColor"/>
  </symbol>
  <!-- Disk icon: storage cylinder -->
  <symbol id="disk" viewBox="0 0 24 24">
    <ellipse cx="12" cy="6" rx="8" ry="4" fill="currentColor"/>
    <path d="M4 6v8c0 2.2 3.6 4 8 4s8-1.8 8-4V6h-2v8c0 1.1-2.7 2-6 2s-6-.9-6-2V6H4z" fill="currentColor"/>
  </symbol>
  <!-- Alert icon: triangle with exclamation -->
  <symbol id="alert" viewBox="0 0 24 24">
    <path d="M12 3l10 18H2L12 3zm0 4.4L5.4 19h13.2L12 7.4zm-1 4.6h2v4h-2v-4zm0 6h2v2h-2v-2z" fill="currentColor"/>
  </symbol>
  <!-- Search icon: magnifying glass -->
  <symbol id="search" viewBox="0 0 24 24">
    <circle cx="11" cy="11" r="7" stroke="currentColor" stroke-width="2" fill="none"/>
    <line x1="16" y1="16" x2="21" y2="21" stroke="currentColor" stroke-width="2" stroke-linecap="round"/>
  </symbol>
  <!-- More icon: three dots -->
  <symbol id="more" viewBox="0 0 24 24">
    <circle cx="5" cy="12" r="2" fill="currentColor"/>
    <circle cx="12" cy="12" r="2" fill="currentColor"/>
    <circle cx="19" cy="12" r="2" fill="currentColor"/>
  </symbol>
  <!-- Sun icon for light mode -->
  <symbol id="sun" viewBox="0 0 24 24">
    <circle cx="12" cy="12" r="5" fill="currentColor"/>
    <g stroke="currentColor" stroke-width="2" stroke-linecap="round">
      <line x1="12" y1="1" x2="12" y2="4"/>
      <line x1="12" y1="20" x2="12" y2="23"/>
      <line x1="4.2" y1="4.2" x2="6.3" y2="6.3"/>
      <line x1="17.7" y1="17.7" x2="19.8" y2="19.8"/>
      <line x1="1" y1="12" x2="4" y2="12"/>
      <line x1="20" y1="12" x2="23" y2="12"/>
      <line x1="4.2" y1="19.8" x2="6.3" y2="17.7"/>
      <line x1="17.7" y1="6.3" x2="19.8" y2="4.2"/>
    </g>
  </symbol>
  <!-- Moon icon for dark mode -->
  <symbol id="moon" viewBox="0 0 24 24">
    <path d="M21 12.8A9 9 0 1111.2 3 7 7 0 0021 12.8z" fill="currentColor"/>
  </symbol>
  <!-- Layout icon: grid toggle for density -->
  <symbol id="layout" viewBox="0 0 24 24">
    <rect x="3" y="3" width="7" height="7" rx="1" fill="currentColor"/>
    <rect x="14" y="3" width="7" height="7" rx="1" fill="currentColor"/>
    <rect x="3" y="14" width="7" height="7" rx="1" fill="currentColor"/>
    <rect x="14" y="14" width="7" height="7" rx="1" fill="currentColor"/>
  </symbol>
</svg>